<?xml version="1.0" encoding="UTF-8"?>
<svg id="Layer_2" data-name="Layer 2" xmlns="http://www.w3.org/2000/svg" viewBox="0 0 48.17 13.29">
  <defs>
    <style>
      .cls-1 {
        fill: #e56942;
      }

      .cls-2 {
        fill: #fff;
      }
    </style>
  </defs>
  <g id="Layer_1-2" data-name="Layer 1">
    <g>
      <g>
        <path d="M16.69,9.83V3.8h2.34c.76,0,1.36,.19,1.79,.57,.43,.38,.65,.91,.65,1.59,0,.44-.1,.82-.29,1.14-.2,.32-.48,.56-.84,.73-.36,.17-.79,.25-1.29,.25h-1.74l.51-.53v2.27h-1.13Zm1.13-2.14l-.51-.58h1.68c.45,0,.78-.1,1.01-.31,.22-.2,.34-.49,.34-.85s-.11-.66-.34-.86c-.22-.2-.56-.3-1.01-.3h-1.68l.51-.58v3.47Zm2.55,2.14l-1.43-2.19h1.2l1.43,2.19h-1.2Z"/>
        <path d="M24.47,9.88c-.48,0-.9-.1-1.27-.3s-.65-.48-.84-.84c-.2-.36-.3-.76-.3-1.22s.1-.86,.29-1.22c.19-.36,.46-.64,.8-.84,.34-.2,.73-.3,1.16-.3s.8,.1,1.13,.29c.33,.2,.6,.47,.79,.83,.19,.36,.29,.78,.29,1.27,0,.04,0,.09,0,.16,0,.06,0,.12-.01,.17h-3.58v-.74h3.01l-.42,.23c0-.25-.04-.48-.15-.68-.1-.2-.24-.35-.42-.46-.18-.11-.39-.16-.63-.16s-.45,.05-.63,.16c-.18,.11-.32,.26-.42,.46s-.15,.43-.15,.69v.18c0,.27,.06,.51,.17,.71,.11,.21,.27,.37,.48,.48,.21,.11,.45,.17,.73,.17,.24,0,.45-.04,.64-.12,.19-.08,.36-.2,.5-.37l.58,.71c-.2,.24-.45,.42-.74,.55-.3,.12-.64,.19-1.02,.19Z"/>
        <path d="M27.35,9.83V5.22h1.03v1.26l-.19-.39c.15-.3,.37-.53,.66-.69,.29-.16,.62-.24,1-.24,.34,0,.65,.07,.93,.22,.27,.14,.48,.36,.64,.66,.15,.3,.23,.68,.23,1.15v2.63h-1.08v-2.48c0-.4-.09-.69-.26-.89-.17-.2-.41-.29-.72-.29-.23,0-.44,.05-.61,.15-.18,.1-.31,.25-.41,.44s-.15,.45-.15,.75v2.32h-1.08Z"/>
        <path d="M32.23,6.14v-.91h2.91v.91h-2.91Zm2.22,3.75c-.48,0-.85-.13-1.12-.4-.27-.26-.4-.65-.4-1.17V4.21h1.08v4.08c0,.21,.05,.38,.16,.49,.11,.11,.25,.17,.42,.17,.22,0,.4-.06,.55-.18l.3,.82c-.12,.1-.27,.17-.44,.22-.18,.05-.36,.07-.55,.07Z"/>
        <path d="M36.7,4.49c-.2,0-.37-.06-.5-.19-.13-.13-.19-.29-.19-.48s.06-.35,.19-.48c.13-.13,.29-.19,.5-.19s.36,.06,.49,.18,.19,.28,.19,.46c0,.2-.06,.37-.19,.5-.13,.13-.29,.2-.5,.2Zm-.54,5.34V5.22h1.08v4.61h-1.08Z"/>
        <path d="M40.25,9.88c-.41,0-.79-.1-1.12-.29-.33-.19-.59-.47-.78-.82-.19-.36-.28-.77-.28-1.24s.09-.89,.28-1.25c.19-.36,.45-.63,.78-.83,.33-.2,.7-.29,1.12-.29,.37,0,.7,.08,.98,.25,.28,.17,.5,.43,.66,.77,.16,.35,.24,.79,.24,1.34s-.08,.97-.25,1.32c-.16,.35-.39,.61-.67,.78-.28,.17-.61,.25-.97,.25Zm.15-.96c.24,0,.45-.06,.63-.17,.18-.11,.33-.27,.44-.48,.11-.21,.17-.45,.17-.74s-.06-.54-.17-.75c-.11-.21-.26-.37-.44-.48-.18-.11-.39-.17-.63-.17s-.45,.06-.63,.17c-.18,.11-.33,.28-.44,.48-.11,.21-.17,.46-.17,.75s.06,.53,.17,.74c.11,.21,.26,.37,.44,.48,.18,.11,.39,.17,.63,.17Zm1.21,2.58v-2.7l.08-1.26-.03-1.27v-1.04h1.03v6.28h-1.08Z"/>
        <path d="M45.84,9.88c-.45,0-.85-.1-1.2-.3-.35-.2-.63-.48-.83-.84-.2-.36-.3-.76-.3-1.22s.1-.87,.31-1.22c.2-.36,.48-.63,.83-.84,.35-.2,.74-.3,1.19-.3s.85,.1,1.2,.3c.35,.2,.63,.48,.83,.84,.2,.36,.3,.77,.3,1.23s-.1,.86-.3,1.21c-.2,.36-.48,.63-.83,.84-.35,.2-.75,.3-1.2,.3Zm0-.96c.24,0,.45-.06,.63-.17,.18-.11,.33-.27,.44-.48,.11-.21,.17-.46,.17-.74s-.06-.53-.17-.74c-.11-.21-.26-.37-.44-.48-.18-.11-.39-.17-.63-.17s-.45,.06-.63,.17c-.18,.11-.33,.28-.44,.48-.11,.21-.17,.45-.17,.74s.06,.54,.17,.74c.11,.21,.26,.37,.44,.48,.18,.11,.39,.17,.63,.17Z"/>
      </g>
      <g>
        <path class="cls-1" d="M.83,0H12.46c.46,0,.83,.37,.83,.83V12.46c0,.46-.37,.83-.83,.83H.83c-.46,0-.83-.37-.83-.83V.83C0,.37,.37,0,.83,0Z"/>
        <path class="cls-2" d="M13.29,5.22v1.73H4.44c-.11,0-.19-.11-.15-.22L6.35,2.26c.07-.2,.26-.33,.47-.33h4.63c.21,0,.4,.13,.47,.33l1.37,2.96Z"/>
        <rect class="cls-2" x="8.7" y="6.15" width=".87" height="7.15"/>
      </g>
    </g>
  </g>
</svg>